<?xml version="1.0" encoding="UTF-8"?>
<svg xmlns="http://www.w3.org/2000/svg" xmlns:xlink="http://www.w3.org/1999/xlink" width="310px" height="74px" viewBox="0 0 307 74" version="1.1">
<g id="surface1">
<path style=" stroke:none;fill-rule:nonzero;fill:rgb(100%,100%,100%);fill-opacity:1;" d="M 128.480469 73.242188 L 128.480469 23.050781 L 128.109375 23.050781 L 108.097656 73.242188 L 100.3125 73.242188 L 80.300781 23.050781 L 79.929688 23.050781 L 79.929688 73.242188 L 70.664062 73.242188 L 70.664062 5.203125 L 82.523438 5.203125 L 104.019531 59.484375 L 104.390625 59.484375 L 125.886719 5.203125 L 138.117188 5.203125 L 138.117188 73.242188 Z M 190.371094 73.242188 L 180.734375 73.242188 L 180.734375 64.691406 L 180.363281 64.691406 C 177.769531 70.636719 172.582031 73.984375 165.167969 73.984375 C 154.421875 73.984375 148.121094 66.921875 148.121094 55.394531 L 148.121094 23.421875 L 158.128906 23.421875 L 158.128906 53.535156 C 158.128906 60.972656 161.835938 65.0625 168.503906 65.0625 C 175.917969 65.0625 179.996094 59.855469 179.996094 52.050781 L 179.996094 23.421875 L 190 23.421875 Z M 217.796875 22.679688 C 229.285156 22.679688 236.328125 29 236.699219 38.292969 L 227.433594 38.292969 C 226.691406 33.460938 223.355469 30.484375 217.796875 30.484375 C 212.238281 30.484375 208.53125 33.089844 208.53125 37.179688 C 208.53125 40.152344 210.753906 42.382812 215.945312 43.5 L 223.726562 45.355469 C 233.734375 47.589844 237.4375 51.675781 237.4375 58.742188 C 237.4375 67.664062 229.285156 73.984375 217.796875 73.984375 C 205.566406 73.984375 198.152344 68.035156 197.414062 58.371094 L 207.417969 58.371094 C 208.160156 63.574219 211.867188 66.175781 217.796875 66.175781 C 223.726562 66.175781 227.433594 63.574219 227.433594 59.484375 C 227.433594 56.140625 225.578125 54.28125 220.390625 53.164062 L 212.609375 51.304688 C 203.34375 49.074219 198.894531 44.613281 198.894531 37.179688 C 198.894531 28.628906 206.308594 22.679688 217.796875 22.679688 Z M 244.851562 10.410156 C 244.851562 7.0625 247.445312 4.460938 250.78125 4.460938 C 254.117188 4.460938 256.710938 7.0625 256.710938 10.410156 C 256.710938 13.757812 254.117188 16.359375 250.78125 16.359375 C 247.445312 16.359375 244.851562 13.757812 244.851562 10.410156 Z M 245.59375 23.421875 L 255.597656 23.421875 L 255.597656 73.242188 L 245.59375 73.242188 Z M 297.847656 40.523438 C 296.734375 35.320312 293.03125 30.859375 286.359375 30.859375 C 278.578125 30.859375 273.386719 37.550781 273.386719 47.960938 C 273.386719 58.742188 278.578125 65.0625 286.359375 65.0625 C 292.660156 65.0625 296.367188 61.714844 297.847656 55.765625 L 307.484375 55.765625 C 306.371094 66.175781 298.21875 73.613281 286.359375 73.613281 C 272.277344 73.613281 263.382812 63.945312 263.382812 47.960938 C 263.382812 32.34375 272.277344 22.308594 286.359375 22.308594 C 298.960938 22.308594 306.371094 30.484375 307.484375 40.152344 Z M 39.902344 11.898438 C 37.308594 14.871094 33.234375 17.472656 29.15625 17.101562 C 28.414062 12.640625 30.636719 8.179688 32.863281 5.578125 C 35.457031 2.230469 39.902344 0 43.609375 0 C 43.980469 4.089844 42.496094 8.550781 39.902344 11.898438 Z M 43.609375 17.84375 C 45.832031 17.84375 52.503906 18.589844 56.953125 25.28125 C 56.582031 25.652344 49.167969 30.113281 49.167969 39.410156 C 49.167969 50.5625 58.804688 54.28125 58.804688 54.28125 C 58.804688 54.652344 57.324219 59.484375 53.988281 64.691406 C 51.023438 69.152344 47.6875 73.613281 42.867188 73.613281 C 38.050781 73.613281 36.566406 70.636719 31.007812 70.636719 C 25.449219 70.636719 23.597656 73.613281 19.148438 73.613281 C 14.332031 73.613281 10.625 68.78125 7.660156 64.316406 C 1.359375 55.023438 -3.457031 38.292969 3.214844 27.140625 C 6.179688 21.5625 12.109375 17.84375 18.039062 17.84375 C 22.855469 17.84375 27.304688 21.191406 29.898438 21.191406 C 32.492188 21.191406 37.679688 17.472656 43.609375 17.84375 Z M 43.609375 17.84375 "/>
</g>
</svg>
