<?xml version="1.0" encoding="UTF-8" standalone="no"?>
<svg
   width="310px"
   height="74px"
   viewBox="0 0 307 74"
   version="1.1"
   id="svg5"
   sodipodi:docname="AppChromeBtn3 (1).svg"
   inkscape:version="1.1 (c68e22c387, 2021-05-23)"
   xmlns:inkscape="http://www.inkscape.org/namespaces/inkscape"
   xmlns:sodipodi="http://sodipodi.sourceforge.net/DTD/sodipodi-0.dtd"
   xmlns="http://www.w3.org/2000/svg"
   xmlns:svg="http://www.w3.org/2000/svg">
  <defs
     id="defs9" />
  <sodipodi:namedview
     id="namedview7"
     pagecolor="#ffffff"
     bordercolor="#666666"
     borderopacity="1.0"
     inkscape:pageshadow="2"
     inkscape:pageopacity="0.0"
     inkscape:pagecheckerboard="0"
     showgrid="false"
     inkscape:zoom="4.0387097"
     inkscape:cx="146.33387"
     inkscape:cy="37.016773"
     inkscape:window-width="1920"
     inkscape:window-height="991"
     inkscape:window-x="-9"
     inkscape:window-y="-9"
     inkscape:window-maximized="1"
     inkscape:current-layer="svg5" />
  <g
     id="surface1">
    <path
       style="fill:#ffffff;fill-opacity:1;fill-rule:nonzero;stroke:none;stroke-width:0.80665"
       d="M 133.36487,66.23325 V 25.746352 h -0.29935 L 116.92307,66.23325 h -6.27989 L 94.50072,25.746352 H 94.201378 V 66.23325 H 86.727261 V 11.34954 h 9.566366 l 17.339823,43.78597 h 0.29935 l 17.33982,-43.78597 h 9.8657 v 54.88371 z m 49.92407,0 h -7.77347 v -6.897488 h -0.29933 c -2.09225,4.795787 -6.27675,7.496173 -12.2573,7.496173 -8.66834,0 -13.75087,-5.696965 -13.75087,-14.995498 V 26.045695 h 8.0728 v 24.290878 c 0,5.999459 2.99029,9.298532 8.369,9.298532 5.98056,0 9.27018,-4.200251 9.27018,-10.495903 V 26.045695 h 8.06964 z m 22.12301,-40.786241 c 9.26702,0 14.94822,5.098281 15.24757,12.594454 h -7.47412 c -0.59868,-3.897758 -3.28962,-6.298803 -7.77345,-6.298803 -4.48385,0 -7.47412,2.101702 -7.47412,5.400774 0,2.397894 1.7929,4.197101 5.98055,5.098281 l 6.27675,1.496714 c 8.07279,1.802358 11.05992,5.098279 11.05992,10.798396 0,7.19683 -6.57608,12.29511 -15.8431,12.29511 -9.86572,0 -15.84626,-4.798937 -16.4418,-12.594452 h 8.06965 c 0.59868,4.1971 3.58896,6.29565 8.37215,6.29565 4.78318,0 7.77345,-2.09855 7.77345,-5.397623 0,-2.697235 -1.49671,-4.1971 -5.6812,-5.09828 l -6.27675,-1.499864 c -7.47412,-1.799208 -11.06308,-5.397624 -11.06308,-11.393932 0,-6.897488 5.98055,-11.696425 15.24758,-11.696425 z m 21.82366,-9.897217 c 0,-2.700387 2.09224,-4.798937 4.78318,-4.798937 2.69093,0 4.78318,2.09855 4.78318,4.798937 0,2.700386 -2.09225,4.798937 -4.78318,4.798937 -2.69094,0 -4.78318,-2.098551 -4.78318,-4.798937 z m 0.59868,10.495903 h 8.06966 V 66.23325 h -8.06966 z m 42.15062,13.794975 c -0.89804,-4.197101 -3.88516,-7.795516 -9.26703,-7.795516 -6.27674,0 -10.46439,5.397623 -10.46439,13.794976 0,8.696695 4.18765,13.794975 10.46439,13.794975 5.08253,0 8.0728,-2.700386 9.26703,-7.499324 h 7.77345 c -0.89802,8.397352 -7.47411,14.396811 -17.04048,14.396811 -11.35927,0 -18.53404,-7.798666 -18.53404,-20.692462 0,-12.597605 7.17477,-20.692463 18.53404,-20.692463 10.16505,0 16.14246,6.594993 17.04048,14.393661 z M 61.91332,16.750314 c -2.092247,2.397894 -5.378716,4.496443 -8.668336,4.1971 -0.598686,-3.598414 1.19422,-7.196829 2.990277,-9.29538 2.092248,-2.7003868 5.678059,-4.4995945 8.668336,-4.4995945 0.299343,3.2990725 -0.898028,6.8974875 -2.990277,9.5978745 z m 2.990277,4.795786 c 1.792905,0 7.174774,0.601837 10.763737,5.99946 -0.299344,0.299343 -6.279896,3.897757 -6.279896,11.397082 0,8.996038 7.773459,11.995768 7.773459,11.995768 0,0.299343 -1.194221,4.1971 -3.885155,8.397352 -2.39159,3.598416 -5.082525,7.19683 -8.97083,7.19683 -3.885155,0 -5.082526,-2.401043 -9.566365,-2.401043 -4.483839,0 -5.977402,2.401043 -9.566364,2.401043 -3.885156,0 -6.875432,-3.897757 -9.267023,-7.499324 C 30.822635,51.537095 26.937481,38.041463 32.319349,29.045425 34.71094,24.54583 39.494122,21.5461 44.277304,21.5461 c 3.885155,0 7.474118,2.700387 9.566366,2.700387 2.092248,0 6.276745,-2.99973 11.059927,-2.700387 z m 0,0"
       id="path2" />
  </g>
</svg>
